<?xml version="1.0" encoding="utf-8"?>
<!-- Generator: Adobe Illustrator 16.0.0, SVG Export Plug-In . SVG Version: 6.00 Build 0)  -->
<!DOCTYPE svg PUBLIC "-//W3C//DTD SVG 1.1//EN" "http://www.w3.org/Graphics/SVG/1.1/DTD/svg11.dtd">
<svg version="1.1" id="图层_1" xmlns="http://www.w3.org/2000/svg" xmlns:xlink="http://www.w3.org/1999/xlink" x="0px" y="0px"
	 width="200px" height="200px" viewBox="0 0 200 200" enable-background="new 0 0 200 200" xml:space="preserve">
<g>
	<g>
		<path fill="#035FA5" d="M-35.061,97.755c0-2.682-1.41-4.4-4.229-5.156l-2.384-0.55v-6.257c2.301,0.365,3.543,1.601,3.724,3.713
			h2.373c-0.188-3.555-2.233-5.508-6.097-5.896v-3.043h-1.855v3.015c-3.77,0.312-5.775,2.203-5.97,5.717
			c0,2.338,1.34,3.852,4.021,4.537l1.948,0.411v6.936c-2.737-0.332-4.114-1.778-4.114-4.354h-2.475
			c-0.069,2.131,0.583,3.711,1.959,4.742c0.896,0.956,2.44,1.494,4.63,1.62v3.042h1.855v-3.074
			C-37.414,102.837-35.191,101.051-35.061,97.755z M-44.653,91.36c-1.582-0.207-2.338-0.996-2.268-2.371
			c0-1.906,1.136-2.981,3.392-3.238v5.869L-44.653,91.36z M-37.434,98.063c-0.063,1.882-1.485,2.925-4.239,3.146v-6.573l0.114,0.024
			C-38.604,95.212-37.227,96.347-37.434,98.063z"/>
	</g>
</g>
<path fill-rule="evenodd" clip-rule="evenodd" fill="none" stroke="#035FA5" stroke-width="2" stroke-miterlimit="10" d="
	M-42.592,71.399c12.15,0,22,9.85,22,22c0,12.15-9.85,22-22,22s-22-9.85-22-22C-64.592,81.249-54.743,71.399-42.592,71.399z"/>
<g>
	<g>
		<path fill="#035FA5" d="M122.166,112.379H80.249V72.457c0-0.2-0.163-0.362-0.363-0.362h-1c-0.2,0-0.363,0.162-0.363,0.362v41.28
			c0,0.197,0.16,0.357,0.357,0.357h43.286c0.197,0,0.357-0.16,0.357-0.357v-1C122.523,112.539,122.363,112.379,122.166,112.379z
			 M81.755,102.729l13.356-13.224l9.229,8.368l0.571,0.569l11.576-11.462l2.299,2.243l2.152-8.276l-8.291,2.286l2.609,2.547
			l-10.371,10.268l-8.552-7.754l0.087-0.086l-1.219-1.214l-0.145,0.143l-0.097-0.088l-1.164,1.266l0.037,0.033l-13.298,13.167
			L81.755,102.729z"/>
	</g>
</g>
</svg>
