<?xml version="1.0" encoding="utf-8"?>
<!-- Generator: Adobe Illustrator 16.0.0, SVG Export Plug-In . SVG Version: 6.00 Build 0)  -->
<!DOCTYPE svg PUBLIC "-//W3C//DTD SVG 1.1//EN" "http://www.w3.org/Graphics/SVG/1.1/DTD/svg11.dtd">
<svg version="1.1" id="图层_1" xmlns="http://www.w3.org/2000/svg" xmlns:xlink="http://www.w3.org/1999/xlink" x="0px" y="0px"
	 width="52.022px" height="34.001px" viewBox="0 0 52.022 34.001" enable-background="new 0 0 52.022 34.001" xml:space="preserve">
<g>
	<g>
		<path fill="#BFBFBF" d="M18.339,17.001c0,0.903,0.162,1.77,0.459,2.574l2.967-2.919c0.17-2.039,1.825-3.667,3.896-3.835
			l2.967-2.92c-0.816-0.292-1.697-0.452-2.615-0.452C21.781,9.449,18.339,12.836,18.339,17.001z M26.605,21.155l-3.05,3.001
			c0.771,0.258,1.598,0.397,2.456,0.397c4.231,0,7.673-3.388,7.673-7.552c0-0.845-0.142-1.658-0.403-2.417l-3.049,3.001
			C29.97,19.432,28.481,20.897,26.605,21.155z M14.105,24.194c-1.591-0.811-3.018-1.688-4.231-2.514
			c-2.606-1.774-4.619-3.567-5.777-4.679c1.159-1.113,3.171-2.905,5.777-4.679c3.796-2.584,9.677-5.665,16.138-5.665
			c1.808,0,3.57,0.241,5.254,0.645l2.769-2.725c-2.717-0.847-5.406-1.276-8.022-1.276c-3.275,0-6.667,0.671-10.082,1.995
			c-2.693,1.045-5.408,2.497-8.069,4.315c-4.511,3.083-7.301,6.144-7.417,6.273c-0.576,0.636-0.576,1.596,0,2.232
			c0.117,0.129,2.906,3.189,7.417,6.273c1.232,0.842,2.476,1.604,3.724,2.286L14.105,24.194z M51.58,15.885
			c-0.117-0.129-2.905-3.189-7.417-6.273c-1.187-0.811-2.384-1.548-3.585-2.21L38.06,9.88c1.534,0.791,2.913,1.64,4.091,2.442
			c2.604,1.773,4.617,3.566,5.776,4.678c-3.006,2.881-11.771,10.344-21.915,10.344c-1.746,0-3.449-0.225-5.08-0.604l-2.778,2.734
			c2.661,0.813,5.296,1.226,7.858,1.226c3.275,0,6.667-0.671,10.082-1.995c2.693-1.045,5.409-2.497,8.069-4.315
			c4.512-3.083,7.3-6.144,7.417-6.273C52.155,17.481,52.155,16.521,51.58,15.885z M42.784,0.492c-0.666-0.655-1.746-0.655-2.411,0
			L9.24,31.137c-0.666,0.655-0.666,1.718,0,2.373c0.332,0.328,0.769,0.492,1.205,0.492s0.873-0.164,1.205-0.492L42.784,2.865
			C43.45,2.21,43.45,1.147,42.784,0.492z"/>
	</g>
</g>
</svg>
