<?xml version="1.0" encoding="utf-8"?>
<!-- Generator: Adobe Illustrator 16.0.0, SVG Export Plug-In . SVG Version: 6.00 Build 0)  -->
<!DOCTYPE svg PUBLIC "-//W3C//DTD SVG 1.1//EN" "http://www.w3.org/Graphics/SVG/1.1/DTD/svg11.dtd">
<svg version="1.1" id="图层_1" xmlns="http://www.w3.org/2000/svg" xmlns:xlink="http://www.w3.org/1999/xlink" x="0px" y="0px"
	 width="44px" height="42px" viewBox="0 0 44 42" enable-background="new 0 0 44 42" xml:space="preserve">
<g>
	<g>
		<path fill="#035FA5" d="M-114.954,47.573c0-2.682-1.41-4.4-4.229-5.156l-2.384-0.55V35.61c2.301,0.365,3.543,1.601,3.724,3.713
			h2.373c-0.188-3.555-2.233-5.508-6.097-5.896v-3.043h-1.855v3.015c-3.77,0.312-5.775,2.203-5.97,5.717
			c0,2.338,1.34,3.852,4.021,4.537l1.948,0.411V51c-2.737-0.332-4.114-1.778-4.114-4.354h-2.475
			c-0.069,2.131,0.583,3.711,1.959,4.742c0.896,0.956,2.44,1.494,4.63,1.62v3.042h1.855v-3.074
			C-117.306,52.655-115.083,50.869-114.954,47.573z M-124.545,41.179c-1.582-0.207-2.338-0.996-2.268-2.371
			c0-1.906,1.136-2.981,3.392-3.238v5.869L-124.545,41.179z M-117.327,47.882c-0.063,1.882-1.485,2.925-4.239,3.146v-6.573
			l0.114,0.024C-118.497,45.03-117.12,46.165-117.327,47.882z"/>
	</g>
</g>
<path fill-rule="evenodd" clip-rule="evenodd" fill="none" stroke="#035FA5" stroke-width="2" stroke-miterlimit="10" d="
	M-122.485,21.217c12.15,0,22,9.85,22,22c0,12.15-9.85,22-22,22s-22-9.85-22-22C-144.485,31.067-134.635,21.217-122.485,21.217z"/>
<g>
	<g>
		<path fill="#035FA5" d="M-101.779,120.148h-41.917V80.226c0-0.2-0.163-0.362-0.363-0.362h-1c-0.2,0-0.363,0.162-0.363,0.362v41.28
			c0,0.197,0.16,0.357,0.357,0.357h43.286c0.197,0,0.357-0.16,0.357-0.357v-1C-101.421,120.309-101.582,120.148-101.779,120.148z
			 M-142.19,110.498l13.356-13.225l9.229,8.368l0.571,0.569l11.576-11.462l2.299,2.243l2.152-8.276l-8.291,2.286l2.609,2.547
			l-10.371,10.268l-8.552-7.754l0.087-0.086l-1.219-1.215l-0.145,0.143l-0.097-0.088l-1.164,1.267l0.037,0.033l-13.298,13.167
			L-142.19,110.498z"/>
	</g>
</g>
<g>
	<path fill="#035FA5" d="M-24.656,78.101v2c0.822,0,3.506,0.194,3.526,2.683c0.039,4.715,0,15.425,0,15.534l-0.007,2.007h2.007
		h2.553v16.21c-1.145-1.65-2.957-3.099-5.586-3.099h-28.828c-2.397,0-3.861,0.981-4.668,1.804c-0.376,0.384-0.677,0.798-0.918,1.216
		v-16.131h2.551h2v-2V81.596c0.243-0.331,1.357-1.495,4.828-1.495l22.536,0L-24.656,78.101 M-24.656,78.101
		c-0.025,0-0.038,0-0.038,0h-22.504c-6.076,0-6.828,3.111-6.828,3.111v17.111h-3.033c-0.615,0-1.518,0.635-1.518,1.412v20.365h3.035
		c0,0-0.096-4.666,4.551-4.666h28.828c3.893,0,5.057,4.666,5.057,4.666h2.529V99.736c0-0.924-1.518-1.412-1.518-1.412h-3.035
		c0,0,0.039-10.775,0-15.557C-19.167,78.212-24.17,78.101-24.656,78.101L-24.656,78.101z"/>
</g>
<g>
	<path fill="#035FA5" d="M-28.848,96.511c0.061,0,0.106,0.002,0.117,0.002c0.003,0,0.003,0,0.003-0.001l0.114,0.014h0.115
		c2.624,0,3.883,0.946,4.483,1.795h-8.524C-31.169,96.721-29.584,96.511-28.848,96.511 M-44.708,96.52l0.063,0.001l0.072,0.005
		h0.073c2.301,0,3.843,0.898,4.809,1.795h-8.92C-47.205,96.677-45.353,96.52-44.708,96.52 M-28.848,94.511
		c-1.114,0-4.635,0.369-6.65,4.81h-1c0,0-2.031-4.795-8-4.795c0,0-0.075-0.006-0.209-0.006c-0.961,0-4.981,0.278-6.791,4.801h-2v1
		h34v-1h-2c0,0-0.582-4.795-7-4.795C-28.499,94.525-28.625,94.511-28.848,94.511L-28.848,94.511z"/>
</g>
<rect x="-54.452" y="98.324" fill-rule="evenodd" clip-rule="evenodd" fill="#035FA5" width="36.25" height="1.996"/>
<g>
	<path fill="#035FA5" d="M33.99,2c1.695,0,3.074,1.373,3.074,3.061v9.32l-0.002,0.014v0.142v0.905l0.68,0.597l3.995,3.51
		c0.17,0.2,0.263,0.464,0.263,0.749c0,0.578-0.414,1.065-0.904,1.065h-0.734h-2v2V40H5.898V23.364v-2h-2H2.904
		C2.414,21.364,2,20.876,2,20.299c0-0.286,0.095-0.551,0.255-0.74L22.234,2.415l5.361,4.712l3.32,2.918v-4.42V5.061
		C30.916,3.373,32.295,2,33.99,2 M33.99,0c-2.797,0-5.074,2.271-5.074,5.061v0.564l-5.955-5.233
		c-0.206-0.181-0.463-0.271-0.72-0.271c-0.253,0-0.506,0.087-0.71,0.263L0.912,18.076c-0.033,0.027-0.064,0.059-0.094,0.09
		C0.291,18.74,0,19.498,0,20.299c0,1.689,1.303,3.065,2.904,3.065h0.994v17.552C3.898,41.515,4.385,42,4.986,42h34.287
		c0.602,0,1.088-0.485,1.088-1.084V23.364h0.734c1.602,0,2.904-1.376,2.904-3.065c0-0.801-0.289-1.559-0.816-2.133
		c-0.025-0.029-0.055-0.057-0.084-0.082l-4.037-3.547c0-0.008,0.002-0.014,0.002-0.021V5.061C39.064,2.271,36.789,0,33.99,0L33.99,0
		z"/>
</g>
<path fill="#035FA5" d="M23.092,34.719v-3.84h4.879v-1.643h-4.879v-1.689h4.879v-1.749h-4.039l4.799-8.401h-2.535l-3.246,5.99
	c-0.467,0.867-0.791,1.509-0.973,1.927c-0.213-0.521-0.514-1.127-0.9-1.819l-3.436-6.098h-2.369l4.811,8.401h-4.039v1.749h4.916
	v1.689h-4.916v1.643h4.916v3.84H23.092z"/>
</svg>
