<?xml version="1.0" encoding="utf-8"?>
<!-- Generator: Adobe Illustrator 16.0.0, SVG Export Plug-In . SVG Version: 6.00 Build 0)  -->
<!DOCTYPE svg PUBLIC "-//W3C//DTD SVG 1.1//EN" "http://www.w3.org/Graphics/SVG/1.1/DTD/svg11.dtd">
<svg version="1.1" id="图层_1" xmlns="http://www.w3.org/2000/svg" xmlns:xlink="http://www.w3.org/1999/xlink" x="0px" y="0px"
	 width="200px" height="200px" viewBox="0 0 200 200" enable-background="new 0 0 200 200" xml:space="preserve">
<g>
	<g>
		<path fill="#035FA5" d="M-35.061,97.755c0-2.682-1.41-4.4-4.229-5.156l-2.384-0.55v-6.257c2.301,0.365,3.543,1.601,3.724,3.713
			h2.373c-0.188-3.555-2.233-5.508-6.097-5.896v-3.043h-1.855v3.015c-3.77,0.312-5.775,2.203-5.97,5.717
			c0,2.338,1.34,3.852,4.021,4.537l1.948,0.411v6.936c-2.737-0.332-4.114-1.778-4.114-4.354h-2.475
			c-0.069,2.131,0.583,3.711,1.959,4.742c0.896,0.956,2.44,1.494,4.63,1.62v3.042h1.855v-3.074
			C-37.414,102.837-35.191,101.051-35.061,97.755z M-44.653,91.36c-1.582-0.207-2.338-0.996-2.268-2.371
			c0-1.906,1.136-2.981,3.392-3.238v5.869L-44.653,91.36z M-37.434,98.063c-0.063,1.882-1.485,2.925-4.239,3.146v-6.573l0.114,0.024
			C-38.604,95.212-37.227,96.347-37.434,98.063z"/>
	</g>
</g>
<path fill-rule="evenodd" clip-rule="evenodd" fill="none" stroke="#035FA5" stroke-width="2" stroke-miterlimit="10" d="
	M-42.592,71.399c12.15,0,22,9.85,22,22c0,12.15-9.85,22-22,22s-22-9.85-22-22C-64.592,81.249-54.743,71.399-42.592,71.399z"/>
<g>
	<g>
		<path fill="#035FA5" d="M-21.886,170.33h-41.917v-39.923c0-0.2-0.163-0.362-0.363-0.362h-1c-0.2,0-0.363,0.162-0.363,0.362v41.28
			c0,0.197,0.16,0.357,0.357,0.357h43.286c0.197,0,0.357-0.16,0.357-0.357v-1C-21.529,170.49-21.689,170.33-21.886,170.33z
			 M-62.297,160.68l13.356-13.225l9.229,8.368l0.571,0.569l11.576-11.462l2.299,2.243l2.152-8.276l-8.291,2.286l2.609,2.547
			l-10.371,10.268l-8.552-7.754l0.087-0.086l-1.219-1.215l-0.145,0.143l-0.097-0.088l-1.164,1.267l0.037,0.033l-13.298,13.167
			L-62.297,160.68z"/>
	</g>
</g>
<g>
	<path fill="#035FA5" d="M102.421,71.5v2c0.822,0,3.506,0.194,3.526,2.683c0.038,4.715,0,15.426,0,15.534l-0.007,2.007h2.007h2.553
		v16.21c-1.145-1.65-2.958-3.099-5.587-3.099H76.086c-2.397,0-3.861,0.98-4.668,1.804c-0.375,0.384-0.677,0.797-0.918,1.216V93.723
		h2.551h2v-2V74.995c0.243-0.331,1.357-1.495,4.828-1.495l22.536,0L102.421,71.5 M102.421,71.5c-0.025,0-0.038,0-0.038,0H79.879
		c-6.076,0-6.828,3.111-6.828,3.111v17.111h-3.033c-0.616,0-1.518,0.635-1.518,1.412V113.5h3.034c0,0-0.095-4.666,4.552-4.666
		h28.827c3.894,0,5.057,4.666,5.057,4.666h2.53V93.135c0-0.924-1.519-1.412-1.519-1.412h-3.034c0,0,0.038-10.775,0-15.557
		C107.91,71.61,102.906,71.5,102.421,71.5L102.421,71.5z"/>
</g>
<g>
	<path fill="#035FA5" d="M98.229,89.909c0.061,0,0.106,0.001,0.117,0.001c0.002,0,0.003,0,0.002,0l0.115,0.013h0.115
		c2.624,0,3.883,0.946,4.483,1.795h-8.524C95.907,90.12,97.492,89.909,98.229,89.909 M82.369,89.918h0.063l0.073,0.005h0.073
		c2.301,0,3.843,0.898,4.808,1.795h-8.919C79.872,90.075,81.723,89.918,82.369,89.918 M98.229,87.909
		c-1.115,0-4.635,0.369-6.651,4.81h-1c0,0-2.031-4.795-8-4.795c0,0-0.075-0.005-0.209-0.005c-0.96,0-4.981,0.277-6.791,4.8h-2v1h34
		v-1h-2c0,0-0.582-4.795-7-4.795C98.578,87.924,98.451,87.909,98.229,87.909L98.229,87.909z"/>
</g>
<rect x="72.625" y="91.723" fill-rule="evenodd" clip-rule="evenodd" fill="#035FA5" width="36.25" height="1.996"/>
</svg>
