<?xml version="1.0" encoding="utf-8"?>
<!-- Generator: Adobe Illustrator 16.0.0, SVG Export Plug-In . SVG Version: 6.00 Build 0)  -->
<!DOCTYPE svg PUBLIC "-//W3C//DTD SVG 1.1//EN" "http://www.w3.org/Graphics/SVG/1.1/DTD/svg11.dtd">
<svg version="1.1" id="图层_1" xmlns="http://www.w3.org/2000/svg" xmlns:xlink="http://www.w3.org/1999/xlink" x="0px" y="0px"
	 width="80px" height="80px" viewBox="0 0 80 80" enable-background="new 0 0 80 80" xml:space="preserve">
<g>
	<g>
		<path fill="#035FA5" d="M-64.93,61.164l-15.185-14.861c-1.094-1.07-2.868-1.07-3.961,0L-99.26,61.164
			c-1.094,1.07-1.094,2.807,0,3.877h5.043c-0.071,0.302-0.118,0.613-0.118,0.937V77.44c0,2.262,1.83,4.095,4.088,4.095h4.91v-9.439
			c0-1.118,0.734-2.024,1.64-2.024h3.279c0.905,0,1.639,0.906,1.639,2.024v9.439h4.885c2.258,0,4.088-1.833,4.088-4.095V65.978
			c0-0.323-0.047-0.635-0.117-0.937h4.994C-63.836,63.971-63.836,62.234-64.93,61.164z"/>
	</g>
</g>
<g>
	<g>
		<path fill-rule="evenodd" clip-rule="evenodd" fill="#035FA5" d="M-77.834-5.979h-1c-1.933,0-3.5,1.567-3.5,3.5v29
			c0,1.933,1.567,3.5,3.5,3.5h1c1.933,0,3.5-1.567,3.5-3.5v-29C-74.334-4.412-75.902-5.979-77.834-5.979z M-65.834,6.021h-1
			c-1.933,0-3.5,1.566-3.5,3.5v17c0,1.933,1.567,3.5,3.5,3.5h1c1.933,0,3.5-1.567,3.5-3.5v-17
			C-62.334,7.587-63.902,6.021-65.834,6.021z M-89.834,16.021h-1c-1.933,0-3.5,1.566-3.5,3.5v7c0,1.933,1.567,3.5,3.5,3.5h1
			c1.933,0,3.5-1.567,3.5-3.5v-7C-86.334,17.587-87.902,16.021-89.834,16.021z"/>
	</g>
</g>
<g>
	<g>
		<path fill="none" stroke="#7F8080" stroke-width="2" stroke-miterlimit="10" d="M38.25,12.021h-1c-1.933,0-3.5,1.567-3.5,3.5v29
			c0,1.933,1.567,3.5,3.5,3.5h1c1.933,0,3.5-1.567,3.5-3.5v-29C41.75,13.588,40.183,12.021,38.25,12.021z M50.25,24.021h-1
			c-1.933,0-3.5,1.566-3.5,3.5v17c0,1.933,1.567,3.5,3.5,3.5h1c1.933,0,3.5-1.567,3.5-3.5v-17
			C53.75,25.587,52.183,24.021,50.25,24.021z M26.25,34.021h-1c-1.933,0-3.5,1.566-3.5,3.5v7c0,1.933,1.567,3.5,3.5,3.5h1
			c1.933,0,3.5-1.567,3.5-3.5v-7C29.75,35.587,28.183,34.021,26.25,34.021z"/>
	</g>
</g>
<g>
	<g>
		<path fill="none" stroke="#7F8080" stroke-width="2" stroke-miterlimit="10" d="M125.711,92.128l-15.185-14.861
			c-1.095-1.07-2.868-1.07-3.962,0L91.381,92.128c-1.094,1.07-1.094,2.807,0,3.877h5.043c-0.07,0.303-0.117,0.613-0.117,0.938
			v11.463c0,2.262,1.83,4.094,4.088,4.094h4.909v-9.439c0-1.117,0.733-2.023,1.64-2.023h3.279c0.904,0,1.639,0.906,1.639,2.023
			v9.439h4.885c2.258,0,4.088-1.832,4.088-4.094V96.942c0-0.324-0.047-0.635-0.117-0.938h4.994
			C126.805,94.935,126.805,93.198,125.711,92.128z"/>
	</g>
</g>
</svg>
