<?xml version="1.0" encoding="utf-8"?>
<!-- Generator: Adobe Illustrator 16.0.0, SVG Export Plug-In . SVG Version: 6.00 Build 0)  -->
<!DOCTYPE svg PUBLIC "-//W3C//DTD SVG 1.1//EN" "http://www.w3.org/Graphics/SVG/1.1/DTD/svg11.dtd">
<svg version="1.1" id="图层_1" xmlns="http://www.w3.org/2000/svg" xmlns:xlink="http://www.w3.org/1999/xlink" x="0px" y="0px"
	 width="80px" height="80px" viewBox="0 0 80 80" enable-background="new 0 0 80 80" xml:space="preserve">
<g>
	<g>
		<path fill="#035FA5" d="M-64.93,61.164l-15.185-14.861c-1.094-1.07-2.868-1.07-3.961,0L-99.26,61.164
			c-1.094,1.07-1.094,2.807,0,3.877h5.043c-0.071,0.302-0.118,0.613-0.118,0.937V77.44c0,2.262,1.83,4.095,4.088,4.095h4.91v-9.439
			c0-1.118,0.734-2.024,1.64-2.024h3.279c0.905,0,1.639,0.906,1.639,2.024v9.439h4.885c2.258,0,4.088-1.833,4.088-4.095V65.978
			c0-0.323-0.047-0.635-0.117-0.937h4.994C-63.836,63.971-63.836,62.234-64.93,61.164z"/>
	</g>
</g>
<g>
	<g>
		<path fill-rule="evenodd" clip-rule="evenodd" fill="#035FA5" d="M36.663,19.271h-1c-1.933,0-3.5,1.567-3.5,3.5v29
			c0,1.933,1.567,3.5,3.5,3.5h1c1.933,0,3.5-1.567,3.5-3.5v-29C40.163,20.838,38.596,19.271,36.663,19.271z M48.663,31.271h-1
			c-1.933,0-3.5,1.566-3.5,3.5v17c0,1.933,1.567,3.5,3.5,3.5h1c1.933,0,3.5-1.567,3.5-3.5v-17
			C52.163,32.837,50.596,31.271,48.663,31.271z M24.663,41.271h-1c-1.933,0-3.5,1.566-3.5,3.5v7c0,1.933,1.567,3.5,3.5,3.5h1
			c1.933,0,3.5-1.567,3.5-3.5v-7C28.163,42.837,26.596,41.271,24.663,41.271z"/>
	</g>
</g>
<g>
	<g>
		<path fill="none" stroke="#7F8080" stroke-width="2" stroke-miterlimit="10" d="M126.5,33.5h-1c-1.933,0-3.5,1.567-3.5,3.5v29
			c0,1.933,1.567,3.5,3.5,3.5h1c1.933,0,3.5-1.567,3.5-3.5V37C130,35.067,128.433,33.5,126.5,33.5z M138.5,45.5h-1
			c-1.933,0-3.5,1.566-3.5,3.5v17c0,1.933,1.567,3.5,3.5,3.5h1c1.933,0,3.5-1.567,3.5-3.5V49C142,47.066,140.433,45.5,138.5,45.5z
			 M114.5,55.5h-1c-1.933,0-3.5,1.566-3.5,3.5v7c0,1.933,1.567,3.5,3.5,3.5h1c1.933,0,3.5-1.567,3.5-3.5v-7
			C118,57.066,116.433,55.5,114.5,55.5z"/>
	</g>
</g>
<g>
	<g>
		<path fill="none" stroke="#7F8080" stroke-width="2" stroke-miterlimit="10" d="M125.711,92.128l-15.185-14.861
			c-1.095-1.07-2.868-1.07-3.962,0L91.381,92.128c-1.094,1.07-1.094,2.807,0,3.877h5.043c-0.07,0.303-0.117,0.613-0.117,0.938
			v11.463c0,2.262,1.83,4.094,4.088,4.094h4.909v-9.439c0-1.117,0.733-2.023,1.64-2.023h3.279c0.904,0,1.639,0.906,1.639,2.023
			v9.439h4.885c2.258,0,4.088-1.832,4.088-4.094V96.942c0-0.324-0.047-0.635-0.117-0.938h4.994
			C126.805,94.935,126.805,93.198,125.711,92.128z"/>
	</g>
</g>
</svg>
