<?xml version="1.0" encoding="utf-8"?>
<!-- Generator: Adobe Illustrator 16.0.0, SVG Export Plug-In . SVG Version: 6.00 Build 0)  -->
<!DOCTYPE svg PUBLIC "-//W3C//DTD SVG 1.1//EN" "http://www.w3.org/Graphics/SVG/1.1/DTD/svg11.dtd">
<svg version="1.1" id="图层_1" xmlns="http://www.w3.org/2000/svg" xmlns:xlink="http://www.w3.org/1999/xlink" x="0px" y="0px"
	 width="52.022px" height="27.997px" viewBox="0 0 52.022 27.997" enable-background="new 0 0 52.022 27.997" xml:space="preserve">
<g>
	<g>
		<path fill="#218FE1" d="M51.59,12.858c-0.117-0.131-2.906-3.259-7.42-6.41c-2.662-1.859-5.379-3.342-8.074-4.41
			C32.681,0.686,29.288,0,26.011,0c-3.277,0-6.671,0.686-10.086,2.039c-2.695,1.067-5.412,2.551-8.074,4.41
			c-4.513,3.151-7.303,6.279-7.419,6.41c-0.576,0.65-0.576,1.631,0,2.281c0.116,0.131,2.906,3.259,7.419,6.41
			c2.662,1.858,5.379,3.342,8.074,4.409c3.416,1.353,6.809,2.038,10.086,2.038c3.276,0,6.67-0.686,10.085-2.038
			c2.695-1.067,5.412-2.551,8.074-4.409c4.514-3.151,7.303-6.279,7.42-6.41C52.166,14.489,52.166,13.508,51.59,12.858z
			 M26.011,25.468c-7.016,0-13.401-3.415-17.522-6.28c-2.831-1.968-5.015-3.956-6.272-5.189c1.258-1.233,3.443-3.222,6.272-5.189
			c4.122-2.866,10.506-6.281,17.522-6.281c7.015,0,13.401,3.415,17.523,6.281c2.827,1.968,5.013,3.956,6.271,5.189
			C46.541,17.194,37.024,25.468,26.011,25.468z M26.011,6.281c-4.232,0-7.677,3.461-7.677,7.717s3.443,7.717,7.677,7.717
			c4.232,0,7.676-3.461,7.676-7.717S30.244,6.281,26.011,6.281z M26.011,19.348c-2.936,0-5.322-2.398-5.322-5.35
			s2.386-5.35,5.322-5.35c2.935,0,5.322,2.398,5.322,5.35S28.946,19.348,26.011,19.348z"/>
	</g>
</g>
</svg>
