<?xml version="1.0" encoding="utf-8"?>
<!-- Generator: Adobe Illustrator 16.0.0, SVG Export Plug-In . SVG Version: 6.00 Build 0)  -->
<!DOCTYPE svg PUBLIC "-//W3C//DTD SVG 1.1//EN" "http://www.w3.org/Graphics/SVG/1.1/DTD/svg11.dtd">
<svg version="1.1" id="图层_1" xmlns="http://www.w3.org/2000/svg" xmlns:xlink="http://www.w3.org/1999/xlink" x="0px" y="0px"
	 width="200px" height="200px" viewBox="0 0 200 200" enable-background="new 0 0 200 200" xml:space="preserve">
<g>
	<g>
		<path fill="#035FA5" d="M115.511,109.935c0-2.682-1.41-4.4-4.229-5.156l-2.384-0.55v-6.257c2.301,0.365,3.543,1.601,3.724,3.713
			h2.373c-0.188-3.555-2.233-5.508-6.097-5.896v-3.043h-1.855v3.015c-3.77,0.312-5.775,2.203-5.97,5.717
			c0,2.338,1.34,3.852,4.021,4.537l1.948,0.411v6.936c-2.737-0.332-4.114-1.778-4.114-4.354h-2.475
			c-0.069,2.131,0.583,3.711,1.959,4.742c0.896,0.956,2.44,1.494,4.63,1.62v3.042h1.855v-3.074
			C113.158,115.017,115.381,113.23,115.511,109.935z M105.919,103.54c-1.582-0.207-2.338-0.996-2.268-2.371
			c0-1.906,1.136-2.981,3.392-3.238v5.869L105.919,103.54z M113.138,110.243c-0.063,1.882-1.485,2.925-4.239,3.146v-6.573
			l0.114,0.024C111.968,107.392,113.345,108.526,113.138,110.243z"/>
	</g>
</g>
<path fill-rule="evenodd" clip-rule="evenodd" fill="none" stroke="#035FA5" stroke-width="2" stroke-miterlimit="10" d="
	M107.979,83.579c12.15,0,22,9.85,22,22c0,12.15-9.85,22-22,22s-22-9.85-22-22C85.979,93.428,95.829,83.579,107.979,83.579z"/>
</svg>
