<?xml version="1.0" encoding="utf-8"?>
<!-- Generator: Adobe Illustrator 16.0.0, SVG Export Plug-In . SVG Version: 6.00 Build 0)  -->
<!DOCTYPE svg PUBLIC "-//W3C//DTD SVG 1.1//EN" "http://www.w3.org/Graphics/SVG/1.1/DTD/svg11.dtd">
<svg version="1.1" id="图层_1" xmlns="http://www.w3.org/2000/svg" xmlns:xlink="http://www.w3.org/1999/xlink" x="0px" y="0px"
	 width="21.042px" height="20.99px" viewBox="0 0 21.042 20.99" enable-background="new 0 0 21.042 20.99" xml:space="preserve">
<g>
	<g>
		<path fill="#218FE1" d="M16.988,5.787c-0.464-0.489-1.217-0.489-1.682,0L8.86,12.575L5.777,9.329
			c-0.464-0.489-1.217-0.489-1.682,0s-0.464,1.283,0,1.771l3.924,4.131c0.464,0.489,1.217,0.489,1.681,0l7.287-7.673
			C17.453,7.069,17.453,6.275,16.988,5.787z"/>
	</g>
</g>
<path fill-rule="evenodd" clip-rule="evenodd" fill="none" stroke="#2A91DE" stroke-width="2" stroke-miterlimit="10" d="
	M3.153,1.009H17.93c1.166,0,2.111,0.945,2.111,2.111v14.777c0,1.166-0.945,2.111-2.111,2.111H3.153
	c-1.166,0-2.111-0.945-2.111-2.111V3.12C1.042,1.954,1.987,1.009,3.153,1.009z"/>
</svg>
