<?xml version="1.0" encoding="utf-8"?>
<!-- Generator: Adobe Illustrator 16.0.0, SVG Export Plug-In . SVG Version: 6.00 Build 0)  -->
<!DOCTYPE svg PUBLIC "-//W3C//DTD SVG 1.1//EN" "http://www.w3.org/Graphics/SVG/1.1/DTD/svg11.dtd">
<svg version="1.1" id="图层_1" xmlns="http://www.w3.org/2000/svg" xmlns:xlink="http://www.w3.org/1999/xlink" x="0px" y="0px"
	 width="37.17px" height="41.045px" viewBox="0 0 37.17 41.045" enable-background="new 0 0 37.17 41.045" xml:space="preserve">
<g>
	<path fill="#218FE1" d="M18.585,0c-6.8,0-12.313,5.513-12.313,12.312c0,6.801,5.513,12.313,12.313,12.313
		s12.313-5.512,12.313-12.313C30.897,5.513,25.385,0,18.585,0z M18.585,22.217c-5.47,0-9.905-4.435-9.905-9.905
		c0-5.47,4.435-9.904,9.905-9.904s9.905,4.435,9.905,9.904C28.49,17.783,24.055,22.217,18.585,22.217z"/>
	<path fill="#218FE1" d="M18.584,24.875c8.931,0,16.172,7.24,16.172,16.171h2.414c0-10.264-8.321-18.585-18.585-18.585
		C8.321,22.46,0,30.782,0,41.045h2.413C2.413,32.115,9.654,24.875,18.584,24.875z"/>
</g>
</svg>
