<?xml version="1.0" encoding="utf-8"?>
<!-- Generator: Adobe Illustrator 16.0.0, SVG Export Plug-In . SVG Version: 6.00 Build 0)  -->
<!DOCTYPE svg PUBLIC "-//W3C//DTD SVG 1.1//EN" "http://www.w3.org/Graphics/SVG/1.1/DTD/svg11.dtd">
<svg version="1.1" id="图层_1" xmlns="http://www.w3.org/2000/svg" xmlns:xlink="http://www.w3.org/1999/xlink" x="0px" y="0px"
	 width="37.875px" height="44.521px" viewBox="0 0 37.875 44.521" enable-background="new 0 0 37.875 44.521" xml:space="preserve">
<g>
	<path fill="#218FE1" d="M37.875,42.109c0,1.332-0.896,2.412-2,2.412H2c-1.104,0-2-1.08-2-2.412V22.063c0-1.332,0.896-2.41,2-2.41
		h33.875c1.104,0,2,1.078,2,2.41V42.109z"/>
	<rect x="2.125" y="22.104" fill="#FFFFFF" width="33.625" height="19.966"/>
	<path fill="#218FE1" d="M7.564,19.652v-5.746c0-6.316,5.07-11.438,11.323-11.438c5.706,0,10.411,4.266,11.195,9.809h2.491
		C31.875,5.381,26.053,0,18.973,0C11.422,0,5.301,6.121,5.301,13.672v5.98H7.564z"/>
</g>
</svg>
