<?xml version="1.0" encoding="utf-8"?>
<!-- Generator: Adobe Illustrator 16.0.0, SVG Export Plug-In . SVG Version: 6.00 Build 0)  -->
<!DOCTYPE svg PUBLIC "-//W3C//DTD SVG 1.1//EN" "http://www.w3.org/Graphics/SVG/1.1/DTD/svg11.dtd">
<svg version="1.1" id="图层_1" xmlns="http://www.w3.org/2000/svg" xmlns:xlink="http://www.w3.org/1999/xlink" x="0px" y="0px"
	 width="46.417px" height="44.522px" viewBox="0 0 46.417 44.522" enable-background="new 0 0 46.417 44.522" xml:space="preserve">
<path fill-rule="evenodd" clip-rule="evenodd" fill="#218FE1" d="M30.952,26.334l-0.236,0.269c0.216,1.017,0.228,1.534,0.228,2.614
	c0,8.453-6.927,15.305-15.471,15.305C6.927,44.522,0,37.67,0,29.218c0-8.452,6.927-15.305,15.473-15.305
	c1.733,0,2.106,0.051,3.671,0.446l0.547-0.446l2.061-1.698l0.753-2.476l2.487-0.194l1.732-1.197V6.957l2.516-0.915l1.597-1.316
	l0.106-1.943l2.459-0.171L36.57,0h7.034l2.813,2.783v8.348L30.952,26.334z M15.473,16.696c-6.992,0-12.66,5.606-12.66,12.522
	S8.481,41.74,15.473,41.74c6.991,0,12.659-5.606,12.659-12.522S22.464,16.696,15.473,16.696z M37.978,2.783l-3.369,3.03
	l-2.257-0.247l0.671,1.673l-1.859,1.672l-3.031-0.563l0.304,3.015l-1.448,1.302l-3.077-0.143l0.488,2.47l-1.895,1.704l2.813,2.783
	L43.604,2.783H37.978z M43.604,5.565L26.725,20.87l2.813,2.782L43.604,9.739V5.565z M11.956,36.174
	c-1.941,0-3.516-1.558-3.516-3.478s1.575-3.479,3.516-3.479c1.943,0,3.518,1.558,3.518,3.479S13.898,36.174,11.956,36.174z"/>
</svg>
