<?xml version="1.0" encoding="utf-8"?>
<!-- Generator: Adobe Illustrator 16.0.0, SVG Export Plug-In . SVG Version: 6.00 Build 0)  -->
<!DOCTYPE svg PUBLIC "-//W3C//DTD SVG 1.1//EN" "http://www.w3.org/Graphics/SVG/1.1/DTD/svg11.dtd">
<svg version="1.1" id="图层_1" xmlns="http://www.w3.org/2000/svg" xmlns:xlink="http://www.w3.org/1999/xlink" x="0px" y="0px"
	 width="80px" height="80px" viewBox="0 0 80 80" enable-background="new 0 0 80 80" xml:space="preserve">
<g>
	<g>
		<path fill="#035FA5" d="M56.32,39.128L41.136,24.267c-1.094-1.07-2.868-1.07-3.961,0L21.99,39.128
			c-1.094,1.07-1.094,2.807,0,3.877h5.043c-0.071,0.302-0.118,0.613-0.118,0.937v11.463c0,2.262,1.83,4.095,4.088,4.095h4.91V50.06
			c0-1.118,0.734-2.024,1.64-2.024h3.279c0.905,0,1.639,0.906,1.639,2.024v9.439h4.885c2.258,0,4.088-1.833,4.088-4.095V43.941
			c0-0.323-0.047-0.635-0.117-0.937h4.994C57.414,41.935,57.414,40.198,56.32,39.128z"/>
	</g>
</g>
</svg>
